<svg width="512" height="512" viewBox="0 0 512 512" fill="none" xmlns="http://www.w3.org/2000/svg">
<g clip-path="url(#clip0_624_445)">
<path d="M46.5622 255.992C46.5622 371.666 140.321 465.438 255.979 465.438C371.636 465.438 465.395 371.666 465.395 255.992C465.395 140.318 371.636 46.5454 255.979 46.5454M46.5622 255.992C46.5622 140.318 140.321 46.5454 255.979 46.5454M46.5622 255.992H67.2852M255.979 46.5454L255.978 67.2719M237.72 47.3428L239.526 67.9902M219.603 49.7286L223.201 70.1398M201.759 53.6846L207.122 73.7047M184.329 59.1809L191.417 78.6572M167.445 66.1755L176.203 84.9597M151.237 74.615L161.599 92.5647M135.822 84.4356L147.709 101.414M121.368 95.5466L134.688 111.424M107.894 107.895L122.548 122.55M95.5476 121.37L111.423 134.693M84.4229 135.87L101.399 147.759M74.6022 151.29L92.5493 161.654M66.1639 167.501L84.9454 176.26M59.1703 184.387L78.6438 191.476M53.6747 201.819L73.6925 207.184M49.728 219.655L70.1363 223.254M47.3426 237.774L67.987 239.581M46.5453 256.035H67.2688M47.359 274.253L68.0034 272.446M49.7444 292.372L70.1526 288.773M53.6998 310.219L73.7171 304.854M59.1954 327.651L78.6689 320.562M66.189 344.537L84.9705 335.778M74.6273 360.748L92.5744 350.384M84.4464 376.167L101.422 364.279M95.5558 390.621L111.431 377.299M107.902 404.099L122.556 389.443M121.376 416.447L134.696 400.57M135.874 427.574L147.76 410.596M151.292 437.392L161.653 419.442M167.5 445.835L176.257 427.051M184.384 452.828L191.472 433.351M201.813 458.326L207.177 438.305M219.646 462.269L223.245 441.858M237.763 464.658L239.569 444.011M256.022 465.454V444.728M256.022 46.5454V67.2719M274.28 47.3428L272.474 67.9902M292.397 49.7286L288.799 70.1398M310.241 53.6846L304.877 73.7047M327.67 59.1809L320.582 78.6572M344.555 66.1755L335.796 84.9597M360.763 74.615L350.401 92.5647M376.18 84.4356L364.293 101.414M390.632 95.5466L377.311 111.424M404.107 107.895L389.453 122.55M416.454 121.37L400.579 134.693M427.574 135.87L410.598 147.759M437.396 151.29L419.449 161.654M445.838 167.501L427.056 176.26M452.829 184.387L433.356 191.476M458.327 201.819L438.309 207.184M462.269 219.655L441.861 223.254M464.658 237.774L444.014 239.581M465.454 256.035H444.731M465.438 255.992H444.714M464.642 274.253L443.997 272.446M462.253 292.372L441.845 288.773M458.299 310.219L438.282 304.854M452.802 327.651L433.329 320.562M445.811 344.537L427.029 335.778M437.374 360.748L419.427 350.384M427.552 376.167L410.576 364.279M416.443 390.621L400.568 377.299M404.096 404.099L389.443 389.443M390.626 416.447L377.305 400.57M376.125 427.574L364.239 410.596M360.713 437.392L350.352 419.442M344.5 445.835L335.742 427.051M327.616 452.828L320.528 433.351M310.186 458.326L304.823 438.305M292.353 462.269L288.755 441.858M274.236 464.658L272.43 444.011M255.978 465.454V444.728" stroke="#015881" stroke-width="3"/>
<line x1="321.707" y1="324.757" x2="357.909" y2="360.959" stroke="#015881" stroke-width="3"/>
<line x1="156.212" y1="159.263" x2="187.242" y2="190.293" stroke="#015881" stroke-width="3"/>
<line x1="154.091" y1="360.96" x2="195.464" y2="319.586" stroke="#015881" stroke-width="3"/>
<line x1="319.586" y1="195.465" x2="355.788" y2="159.263" stroke="#015881" stroke-width="3"/>
<path d="M412.369 53.306C376.788 25.8576 334.61 8.25855 290.072 2.27763C245.535 -3.70329 200.207 2.14472 158.646 19.2339L160.659 24.1291C201.361 7.39325 245.751 1.66615 289.368 7.52342C332.984 13.3807 374.291 30.6159 409.136 57.4968L412.369 53.306Z" fill="#23C0FF"/>
<path d="M100.684 52.4985C64.9618 79.7622 37.0458 115.949 19.7415 157.421C2.43722 198.893 -3.64557 244.189 2.1045 288.757L7.35387 288.08C1.72269 244.433 7.67972 200.073 24.6262 159.459C41.5727 118.844 68.9116 83.4059 103.895 56.7059L100.684 52.4985Z" fill="#23C0FF"/>
<path d="M99.6314 458.694C135.212 486.142 177.39 503.741 221.928 509.722C266.465 515.703 311.793 509.855 353.354 492.766L351.341 487.871C310.639 504.607 266.249 510.334 222.632 504.477C179.016 498.619 137.709 481.384 102.864 454.503L99.6314 458.694Z" fill="#23C0FF"/>
<path d="M458.694 412.368C486.142 376.788 503.742 334.61 509.722 290.072C515.703 245.535 509.855 200.207 492.766 158.646L487.871 160.659C504.607 201.361 510.334 245.751 504.477 289.368C498.619 332.984 481.384 374.291 454.503 409.136L458.694 412.368Z" fill="#23C0FF"/>
<path d="M446.574 117.965C416.755 76.7957 374.405 46.3899 325.864 31.2975C277.322 16.205 225.198 17.2375 177.292 34.2404C129.386 51.2433 88.2745 83.3023 60.1089 125.62C31.9434 167.937 18.2387 218.238 21.0458 268.994C23.8529 319.751 43.0208 368.233 75.6811 407.187C108.341 446.14 152.738 473.47 202.227 485.087C251.715 496.703 303.635 491.981 350.216 471.628C396.798 451.275 435.536 416.385 460.633 372.178L457.273 370.271C432.588 413.751 394.486 448.069 348.67 468.088C302.853 488.107 251.786 492.751 203.109 481.325C154.433 469.9 110.766 443.018 78.6417 404.704C46.5177 366.39 27.6645 318.704 24.9035 268.781C22.1425 218.858 35.6221 169.383 63.3252 127.761C91.0283 86.1378 131.465 54.6052 178.585 37.8814C225.704 21.1577 276.972 20.1422 324.717 34.9868C372.461 49.8315 414.115 79.738 443.445 120.231L446.574 117.965Z" fill="#23C0FF" fill-opacity="0.4"/>
<circle cx="256.5" cy="255.5" r="61" stroke="#015881" stroke-width="3"/>
</g>
<defs>
<clipPath id="clip0_624_445">
<rect width="512" height="512" fill="white"/>
</clipPath>
</defs>
</svg>
