<?xml version="1.0" encoding="UTF-8" standalone="no"?><!DOCTYPE svg PUBLIC "-//W3C//DTD SVG 1.1//EN" "http://www.w3.org/Graphics/SVG/1.1/DTD/svg11.dtd"><svg width="100%" height="100%" viewBox="0 0 2400 2400" version="1.1" xmlns="http://www.w3.org/2000/svg" xmlns:xlink="http://www.w3.org/1999/xlink" xml:space="preserve" xmlns:serif="http://www.serif.com/" style="fill-rule:evenodd;clip-rule:evenodd;"><rect id="Artboard1" x="0" y="0" width="2400" height="2400" style="fill:none;"/><g id="Artboard11" serif:id="Artboard1"><g id="Level-0" serif:id="Level 0"><path d="M1216,1088.26c70.573,0 127.869,57.296 127.869,127.869c-0,70.573 -57.296,127.869 -127.869,127.869c-70.573,-0 -127.869,-57.296 -127.869,-127.869c0,-70.573 57.296,-127.869 127.869,-127.869Zm-0,4c-68.365,0 -123.869,55.504 -123.869,123.869c0,68.365 55.504,123.869 123.869,123.869c68.365,-0 123.869,-55.504 123.869,-123.869c-0,-68.365 -55.504,-123.869 -123.869,-123.869Z" style="fill:#3dfaff;"/></g><g id="Level-5" serif:id="Level 5"><path d="M1216.28,304c503.502,0 912.281,408.779 912.281,912.281c0,503.502 -408.779,912.281 -912.281,912.281c-503.502,0 -912.281,-408.779 -912.281,-912.281c0,-503.502 408.779,-912.281 912.281,-912.281Zm0,16c-494.671,0 -896.281,401.61 -896.281,896.281c0,494.671 401.61,896.281 896.281,896.281c494.671,0 896.281,-401.61 896.281,-896.281c0,-494.671 -401.61,-896.281 -896.281,-896.281Z" style="fill:#199cc8;"/><path d="M2086.74,1001.98c-1.661,-6.831 -3.406,-13.659 -5.235,-20.485c-72.125,-269.175 -263.409,-476.208 -498.907,-583.348c9.099,-19.907 16.583,-36.122 24.885,-54.279c252.308,114.737 453.299,337.19 530.567,625.556c1.676,6.258 3.287,12.518 4.832,18.78l-56.142,13.776Zm-1559.93,-358.123l-51.206,-43.195c122.268,-145.954 288.99,-257.085 486.695,-310.06c197.667,-52.965 397.58,-40.099 576.417,25.134c-6.785,18.714 -13.156,35.808 -20.634,56.426c-167.039,-60.993 -354.586,-70.377 -539.238,-20.9c-184.949,49.557 -337.82,155.929 -452.034,292.595Z" style="fill:#3dfaff;"/></g><g id="Layer5"></g><g id="Level-4" serif:id="Level 4"><path d="M1638.06,614.261l-17.874,25.657c-81.774,-57.464 -177.113,-98.329 -281.971,-116.818c-105,-18.515 -208.704,-12.681 -305.311,13.438l-16.215,-61.622c105.608,-28.523 218.993,-34.883 333.802,-14.639c113.966,20.095 217.646,64.343 306.689,126.539l-14.547,20.881l0.092,0.064l-4.582,6.558l-0.083,-0.058Zm-19.872,14.53l27.837,-39.957c-86.631,-59.162 -186.938,-101.285 -296.923,-120.679c-110.835,-19.543 -220.327,-14.034 -322.643,12.452c0,0 12.144,46.151 12.144,46.151c95.483,-24.655 197.621,-29.765 301.001,-11.537c103.245,18.205 197.364,57.86 278.584,113.57Zm-154.204,-104.122l2.675,-7.539c2.549,0.904 5.091,1.822 7.625,2.752l-2.757,7.51c-2.507,-0.921 -5.021,-1.828 -7.543,-2.723Zm59.444,24.074l3.325,-7.276c2.46,1.124 4.911,2.261 7.355,3.411l-3.405,7.239c-2.417,-1.137 -4.842,-2.262 -7.275,-3.374Zm-438.801,-54.675l-1.445,-7.868c2.657,-0.488 5.317,-0.961 7.982,-1.42l1.358,7.883c-2.636,0.455 -5.267,0.923 -7.895,1.405Zm495.902,83.871l3.952,-6.956c2.35,1.336 4.693,2.683 7.027,4.043l-4.028,6.912c-2.308,-1.345 -4.625,-2.678 -6.951,-3.999Zm-432.376,-92.672l-0.748,-7.964c2.688,-0.253 5.38,-0.491 8.075,-0.715l0.661,7.973c-2.666,0.221 -5.328,0.457 -7.988,0.706Zm191.785,7.205l1.335,-7.888c1.707,0.289 3.413,0.584 5.12,0.884c0.956,0.169 1.911,0.339 2.865,0.511l-1.419,7.874c-0.944,-0.171 -1.89,-0.339 -2.835,-0.506c-1.689,-0.298 -3.378,-0.59 -5.066,-0.875Zm-63.642,-7.974l0.65,-7.973c2.691,0.219 5.383,0.453 8.076,0.703l-0.736,7.966c-2.665,-0.247 -5.328,-0.479 -7.99,-0.696Zm-64.089,-2.423l-0.047,-8c2.699,-0.016 5.402,-0.017 8.106,-0.003l-0.04,8c-2.675,-0.014 -5.348,-0.013 -8.019,0.003Zm190.455,23.806l2.008,-7.744c2.618,0.68 5.23,1.372 7.836,2.078l-2.093,7.722c-2.577,-0.699 -5.161,-1.384 -7.751,-2.056Zm-590.401,134.774l6.903,78.902c-116.166,93.736 -200.264,228.242 -228.194,386.644c-0.016,0.087 -0.031,0.174 -0.046,0.261l-131.305,-23.335l0.015,-0.084c36.808,-208.747 154.903,-382.912 315.984,-495.675l0.034,0.048c54.648,-38.247 114.243,-69.428 177.29,-92.495l21.968,60.997c-57.842,21.12 -112.516,49.686 -162.649,84.737Zm19.421,-32.11c7.492,-4.726 15.072,-9.316 22.736,-13.767l7.321,-41.517c-7.581,4.057 -15.089,8.241 -22.522,12.55l-7.535,42.734Zm-62.544,13.165c-139.738,104.938 -243.07,258.97 -281.35,442.047l84.085,14.943c30.155,-141.636 103.974,-263.671 204.732,-354.387l-7.467,-102.603Zm143.431,-57.265c7.286,-3.39 14.633,-6.66 22.038,-9.809l6.735,-38.197c-7.351,2.894 -14.652,5.902 -21.899,9.022l-6.874,38.984Zm-40.118,20.203c7.383,-4.01 14.838,-7.893 22.362,-11.646l6.997,-39.681c-7.458,3.439 -14.856,6.999 -22.191,10.676l-7.168,40.651Zm-393.394,566.509l31.156,2.651c-8.878,99.551 3.402,202.549 39.819,302.604c36.465,100.189 93.369,187.083 164.293,257.687l-45.259,44.854c-77.506,-77.198 -139.706,-172.212 -179.579,-281.761c-39.579,-108.745 -53.1,-220.659 -43.758,-328.871l25.357,2.158l0.009,-0.112l7.971,0.689l-0.009,0.101Zm22.52,9.945l-48.523,-4.128c-7.92,104.605 5.753,212.535 43.951,317.481c38.492,105.757 98.009,197.827 172.105,273.191c-0,0 33.895,-33.592 33.895,-33.592c-69.093,-70.363 -124.588,-156.262 -160.491,-254.906c-35.856,-98.515 -48.573,-199.852 -40.937,-298.046Zm-13.071,185.606l-7.867,1.453c-0.491,-2.66 -0.967,-5.32 -1.429,-7.98l7.883,-1.367c0.456,2.631 0.927,5.263 1.413,7.894Zm-8.873,-63.517l-7.964,0.758c-0.256,-2.692 -0.498,-5.384 -0.724,-8.075l7.972,-0.67c0.224,2.662 0.463,5.324 0.716,7.987Zm-3.266,-64.049l-8,0.056c-0.019,-2.704 -0.023,-5.406 -0.012,-8.107l8,0.032c-0.011,2.671 -0.007,5.344 0.012,8.019Zm175.317,471.399l-6.092,5.185c-1.751,-2.056 -3.491,-4.124 -5.221,-6.202l6.148,-5.118c1.711,2.056 3.433,4.101 5.165,6.135Zm-148.787,-281.332l-7.711,2.132c-0.721,-2.607 -1.427,-5.215 -2.118,-7.825l7.733,-2.049c0.684,2.582 1.382,5.162 2.096,7.742Zm109.402,230.717l-6.524,4.631c-1.563,-2.202 -3.115,-4.414 -4.656,-6.637l6.574,-4.559c1.524,2.199 3.059,4.387 4.606,6.565Zm-89.654,-169.693l-7.498,2.788c-0.603,-1.622 -1.201,-3.247 -1.794,-4.876c-0.332,-0.912 -0.662,-1.825 -0.99,-2.737l7.528,-2.707c0.324,0.903 0.651,1.805 0.979,2.708c0.587,1.611 1.179,3.219 1.775,4.824Zm24.916,59.103l-7.23,3.423c-1.156,-2.439 -2.299,-4.888 -3.43,-7.345l7.267,-3.345c1.119,2.431 2.25,4.853 3.393,7.267Zm29.946,56.714l-6.904,4.041c-1.364,-2.33 -2.716,-4.67 -4.057,-7.019l6.949,-3.965c1.326,2.324 2.663,4.638 4.012,6.943Zm337.307,267.074l64.88,-45.43c139.261,53.735 297.795,59.313 448.94,4.301c0.083,-0.031 0.167,-0.061 0.25,-0.091l45.443,125.38l-0.08,0.029c-199.184,72.497 -409.063,57.306 -587.259,-25.813l0.025,-0.053c-60.448,-28.203 -117.249,-64.223 -168.749,-107.29l41.841,-49.523c47.212,39.532 99.288,72.599 154.709,98.49Zm5.155,46.817c160.748,68.548 345.81,81.02 523.499,22.634l-29.101,-80.292c-137.739,44.703 -280.333,41.791 -409.275,-0.11l-85.123,57.768Zm-121.309,-95.582c-6.579,-4.615 -13.084,-9.342 -19.513,-14.181l-36.447,13.266c6.182,4.919 12.437,9.738 18.763,14.454l37.197,-13.539Zm37.555,24.642c-7.164,-4.389 -14.254,-8.904 -21.266,-13.543l-37.863,13.781c6.707,4.739 13.489,9.366 20.341,13.88l38.788,-14.118Zm41.081,23.358c-7.839,-4.125 -15.604,-8.394 -23.291,-12.806l-39.615,14.419c7.303,4.536 14.681,8.946 22.13,13.229l40.776,-14.842Zm646.228,34.076l-13.282,-28.307c90.652,-42.087 173.712,-104.22 242.153,-185.785c68.534,-81.676 115.334,-174.403 141.017,-271.126l61.474,16.768c-28.102,105.721 -79.287,207.095 -154.223,296.4c-74.386,88.65 -164.546,156.316 -262.93,202.332l-10.81,-23.039l-0.102,0.047l-3.389,-7.247l0.092,-0.043Zm-2.647,-24.475l20.686,44.087c94.551,-45.444 181.184,-111.25 252.972,-196.804c72.342,-86.214 122.318,-183.792 150.538,-285.643c-0,0 -46.04,-12.558 -46.04,-12.558c-26.39,95.018 -73.033,186.028 -140.51,266.443c-67.388,80.31 -148.79,141.992 -237.646,184.475Zm167.274,-81.483l5.192,6.087c-2.058,1.755 -4.123,3.497 -6.196,5.227l-5.125,-6.143c2.051,-1.711 4.094,-3.435 6.129,-5.171Zm-50.57,39.443l4.638,6.518c-2.203,1.568 -4.413,3.123 -6.631,4.664l-4.566,-6.569c2.193,-1.524 4.379,-3.062 6.559,-4.613Zm-53.835,34.853l4.048,6.9c-2.332,1.368 -4.67,2.723 -7.015,4.064l-3.972,-6.944c2.319,-1.326 4.632,-2.666 6.939,-4.02Zm320.585,-387.528l7.537,2.683c-0.906,2.544 -1.826,5.085 -2.761,7.622l-7.507,-2.766c0.925,-2.509 1.835,-5.023 2.731,-7.539Zm-169.248,269.519l5.702,5.612c-1.897,1.928 -3.803,3.843 -5.717,5.747l-5.641,-5.673c1.894,-1.883 3.779,-3.778 5.656,-5.686Zm145.107,-210.104l7.272,3.334c-1.126,2.455 -2.265,4.906 -3.419,7.351l-7.236,-3.413c1.142,-2.42 2.269,-4.843 3.383,-7.272Zm-102.132,162.489l6.164,5.1c-1.104,1.333 -2.212,2.664 -3.326,3.991c-0.624,0.744 -1.249,1.486 -1.876,2.227l-6.108,-5.166c0.619,-0.733 1.238,-1.467 1.855,-2.203c1.103,-1.314 2.2,-2.63 3.291,-3.949Zm38.726,-51.129l6.581,4.55c-1.536,2.22 -3.085,4.434 -4.647,6.643l-6.53,-4.622c1.545,-2.184 3.078,-4.375 4.596,-6.571Zm34.143,-54.291l6.952,3.959c-1.336,2.346 -2.686,4.687 -4.05,7.022l-6.908,-4.035c1.349,-2.31 2.685,-4.626 4.006,-6.946Zm62.64,-425.653l-71.783,-33.473c-23.095,-147.471 -97.532,-287.555 -220.746,-390.944c-0.068,-0.057 -0.136,-0.114 -0.204,-0.171l85.861,-102.045l0.066,0.055c162.376,136.25 254.159,325.606 271.274,521.487l-0.058,0.006c5.799,66.45 3.005,133.651 -8.542,199.785l-63.809,-11.474c10.63,-60.653 13.229,-122.285 7.941,-183.226Zm37.967,-27.874c-21.009,-173.485 -102.739,-339.99 -242.148,-464.68l-54.984,65.349c107.583,96.933 176.359,221.879 204.542,354.497l92.59,44.834Zm-22.122,152.848c-0.707,8.005 -1.549,16.003 -2.524,23.99l29.712,24.931c1.169,-7.814 2.214,-15.64 3.136,-23.476l-30.324,-25.445Zm2.563,-44.845c-0.219,8.399 -0.584,16.797 -1.095,25.19l30.866,25.899c0.75,-8.178 1.367,-16.365 1.85,-24.556l-31.621,-26.533Zm-0.311,-47.255c0.347,8.851 0.532,17.71 0.554,26.573l32.295,27.098c0.277,-8.593 0.407,-17.187 0.392,-25.779l-33.241,-27.892Z" style="fill:#3dfaff;"/></g><g id="Level-3" serif:id="Level 3"><path d="M811.441,1707.41l-0.385,0.105c-15.761,-13.005 -30.903,-26.761 -45.355,-41.213c-43.467,-43.467 -80.69,-93.185 -110.03,-147.211c-34.116,-62.82 -56.845,-130.551 -68.186,-199.915l6.984,-6.984c0.001,0.006 0.002,0.011 0.003,0.017l47.956,-47.956c-9.156,-110.564 13.222,-223.437 67.135,-322.711c26.458,-48.72 60.025,-93.554 99.223,-132.752c47.215,-47.215 102.608,-86.196 163.054,-114.556l18.218,-67.99l2.552,-9.532c71.684,-26.908 148.084,-40.708 224.656,-40.708c75.988,-0 151.807,13.59 223.015,40.095l1.213,4.853l1.239,4.623c-0.01,-0.004 -0.02,-0.008 -0.03,-0.011l18.536,69.177c60.026,28.317 115.041,67.115 161.975,114.049c39.198,39.198 72.765,84.032 99.223,132.752c54.011,99.454 76.373,212.558 67.085,323.314l57.069,57.069c-11.489,68.404 -34.066,135.176 -67.731,197.166c-29.34,54.026 -66.563,103.744 -110.03,147.211c-13.652,13.651 -27.919,26.682 -42.742,39.045l-5.633,-1.512l-70.215,-18.814c-34.305,24.502 -71.275,45.265 -110.125,61.687c-70.758,29.912 -147.341,45.295 -224.115,45.295c-76.774,0 -153.357,-15.383 -224.115,-45.295c-37.577,-15.884 -73.396,-35.83 -106.745,-59.292l-73.695,20.004l-0.004,-0.01Zm-215.39,-385.467c11.414,67.07 33.631,132.53 66.65,193.331c28.974,53.351 65.732,102.447 108.657,145.371c13.23,13.23 27.046,25.87 41.391,37.875l74.422,-19.941l8.049,6.101c31.319,21.492 64.775,39.863 99.78,54.66c69.774,29.495 145.293,44.663 221,44.663c75.707,0 151.226,-15.168 221,-44.663c39.461,-16.681 76.955,-37.903 111.635,-63.019l0.003,-0.011l75.499,20.229c13.504,-11.412 26.532,-23.389 39.036,-35.894c42.925,-42.924 79.683,-92.02 108.657,-145.371c32.573,-59.98 54.634,-124.493 66.182,-190.614l-56.815,-56.815l0.047,-0.046c9.957,-110.37 -11.989,-223.284 -65.837,-322.439c-26.092,-48.045 -59.195,-92.258 -97.85,-130.914c-47.156,-47.155 -102.582,-85.983 -163.081,-114.036l-20.976,-78.283c-69.156,-25.206 -142.615,-38.123 -216.234,-38.123c-74.245,-0 -148.327,13.137 -217.995,38.768l-20.67,77.14c-60.918,28.091 -116.723,67.099 -164.158,114.534c-38.655,38.656 -71.758,82.869 -97.85,130.914c-53.765,99.001 -75.726,211.718 -65.883,321.924l-54.659,54.659Z" style="fill:#199cc8;"/></g><g id="Ticks"><circle cx="1216" cy="1216" r="384" style="fill:none;stroke:#3dfaff;stroke-width:4px;"/><path d="M1216,1088.26c70.573,0 127.869,57.296 127.869,127.869c-0,70.573 -57.296,127.869 -127.869,127.869c-70.573,-0 -127.869,-57.296 -127.869,-127.869c0,-70.573 57.296,-127.869 127.869,-127.869Zm-0,4c-68.365,0 -123.869,55.504 -123.869,123.869c0,68.365 55.504,123.869 123.869,123.869c68.365,-0 123.869,-55.504 123.869,-123.869c-0,-68.365 -55.504,-123.869 -123.869,-123.869Z" style="fill:#3dfaff;"/><g id="Ticks1" serif:id="Ticks"><path d="M1216,832l0,38" style="fill:none;stroke:#3dfaff;stroke-width:1px;"/><path d="M1182.52,833.462l3.312,37.855" style="fill:none;stroke:#3dfaff;stroke-width:1px;"/><path d="M1149.3,837.836l6.598,37.422" style="fill:none;stroke:#3dfaff;stroke-width:1px;"/><path d="M1116.58,845.089l9.835,36.705" style="fill:none;stroke:#3dfaff;stroke-width:1px;"/><path d="M1084.62,855.166l12.997,35.708" style="fill:none;stroke:#3dfaff;stroke-width:1px;"/><path d="M1053.66,867.99l16.06,34.439" style="fill:none;stroke:#3dfaff;stroke-width:1px;"/><path d="M1023.94,883.463l19,32.909" style="fill:none;stroke:#3dfaff;stroke-width:1px;"/><path d="M995.674,901.468l21.796,31.128" style="fill:none;stroke:#3dfaff;stroke-width:1px;"/><path d="M969.17,921.839l24.425,29.11" style="fill:none;stroke:#3dfaff;stroke-width:1px;"/><path d="M944.463,944.478l26.87,26.87" style="fill:none;stroke:#3dfaff;stroke-width:1px;"/><path d="M921.824,969.184l29.11,24.426" style="fill:none;stroke:#3dfaff;stroke-width:1px;"/><path d="M901.425,995.769l31.128,21.796" style="fill:none;stroke:#3dfaff;stroke-width:1px;"/><path d="M883.417,1024.04l32.909,19" style="fill:none;stroke:#3dfaff;stroke-width:1px;"/><path d="M867.944,1053.76l34.439,16.059" style="fill:none;stroke:#3dfaff;stroke-width:1px;"/><path d="M855.12,1084.72l35.708,12.997" style="fill:none;stroke:#3dfaff;stroke-width:1px;"/><path d="M845.043,1116.68l36.706,9.835" style="fill:none;stroke:#3dfaff;stroke-width:1px;"/><path d="M837.806,1149.38l37.422,6.599" style="fill:none;stroke:#3dfaff;stroke-width:1px;"/><path d="M833.432,1182.6l37.855,3.312" style="fill:none;stroke:#3dfaff;stroke-width:1px;"/><path d="M831.97,1216.08l38,-0" style="fill:none;stroke:#3dfaff;stroke-width:1px;"/><path d="M832,1216l38,0" style="fill:none;stroke:#3dfaff;stroke-width:1px;"/><path d="M833.462,1249.48l37.855,-3.312" style="fill:none;stroke:#3dfaff;stroke-width:1px;"/><path d="M837.836,1282.7l37.422,-6.598" style="fill:none;stroke:#3dfaff;stroke-width:1px;"/><path d="M845.089,1315.42l36.705,-9.835" style="fill:none;stroke:#3dfaff;stroke-width:1px;"/><path d="M855.166,1347.38l35.708,-12.997" style="fill:none;stroke:#3dfaff;stroke-width:1px;"/><path d="M867.99,1378.34l34.439,-16.06" style="fill:none;stroke:#3dfaff;stroke-width:1px;"/><path d="M883.463,1408.06l32.909,-19" style="fill:none;stroke:#3dfaff;stroke-width:1px;"/><path d="M901.468,1436.33l31.128,-21.796" style="fill:none;stroke:#3dfaff;stroke-width:1px;"/><path d="M921.839,1462.83l29.11,-24.425" style="fill:none;stroke:#3dfaff;stroke-width:1px;"/><path d="M944.478,1487.54l26.87,-26.87" style="fill:none;stroke:#3dfaff;stroke-width:1px;"/><path d="M969.184,1510.18l24.426,-29.11" style="fill:none;stroke:#3dfaff;stroke-width:1px;"/><path d="M995.769,1530.58l21.796,-31.128" style="fill:none;stroke:#3dfaff;stroke-width:1px;"/><path d="M1024.04,1548.58l19,-32.909" style="fill:none;stroke:#3dfaff;stroke-width:1px;"/><path d="M1053.76,1564.06l16.059,-34.439" style="fill:none;stroke:#3dfaff;stroke-width:1px;"/><path d="M1084.72,1576.88l12.997,-35.708" style="fill:none;stroke:#3dfaff;stroke-width:1px;"/><path d="M1116.68,1586.96l9.835,-36.706" style="fill:none;stroke:#3dfaff;stroke-width:1px;"/><path d="M1149.38,1594.19l6.599,-37.422" style="fill:none;stroke:#3dfaff;stroke-width:1px;"/><path d="M1182.6,1598.57l3.312,-37.855" style="fill:none;stroke:#3dfaff;stroke-width:1px;"/><path d="M1216.08,1600.03l-0,-38" style="fill:none;stroke:#3dfaff;stroke-width:1px;"/><path d="M1216.08,832l-0,38" style="fill:none;stroke:#3dfaff;stroke-width:1px;"/><path d="M1249.56,833.462l-3.312,37.855" style="fill:none;stroke:#3dfaff;stroke-width:1px;"/><path d="M1282.78,837.836l-6.598,37.422" style="fill:none;stroke:#3dfaff;stroke-width:1px;"/><path d="M1315.5,845.089l-9.835,36.705" style="fill:none;stroke:#3dfaff;stroke-width:1px;"/><path d="M1347.46,855.166l-12.997,35.708" style="fill:none;stroke:#3dfaff;stroke-width:1px;"/><path d="M1378.42,867.99l-16.06,34.439" style="fill:none;stroke:#3dfaff;stroke-width:1px;"/><path d="M1408.14,883.463l-19,32.909" style="fill:none;stroke:#3dfaff;stroke-width:1px;"/><path d="M1436.41,901.468l-21.796,31.128" style="fill:none;stroke:#3dfaff;stroke-width:1px;"/><path d="M1462.91,921.839l-24.426,29.11" style="fill:none;stroke:#3dfaff;stroke-width:1px;"/><path d="M1487.62,944.478l-26.871,26.87" style="fill:none;stroke:#3dfaff;stroke-width:1px;"/><path d="M1510.26,969.184l-29.11,24.426" style="fill:none;stroke:#3dfaff;stroke-width:1px;"/><path d="M1530.65,995.769l-31.128,21.796" style="fill:none;stroke:#3dfaff;stroke-width:1px;"/><path d="M1548.66,1024.04l-32.909,19" style="fill:none;stroke:#3dfaff;stroke-width:1px;"/><path d="M1564.14,1053.76l-34.44,16.059" style="fill:none;stroke:#3dfaff;stroke-width:1px;"/><path d="M1576.96,1084.72l-35.708,12.997" style="fill:none;stroke:#3dfaff;stroke-width:1px;"/><path d="M1587.04,1116.68l-36.706,9.835" style="fill:none;stroke:#3dfaff;stroke-width:1px;"/><path d="M1594.27,1149.38l-37.422,6.599" style="fill:none;stroke:#3dfaff;stroke-width:1px;"/><path d="M1598.65,1182.6l-37.855,3.312" style="fill:none;stroke:#3dfaff;stroke-width:1px;"/><path d="M1600.11,1216.08l-38,-0" style="fill:none;stroke:#3dfaff;stroke-width:1px;"/><path d="M1600.08,1216l-38,0" style="fill:none;stroke:#3dfaff;stroke-width:1px;"/><path d="M1598.62,1249.48l-37.855,-3.312" style="fill:none;stroke:#3dfaff;stroke-width:1px;"/><path d="M1594.24,1282.7l-37.422,-6.598" style="fill:none;stroke:#3dfaff;stroke-width:1px;"/><path d="M1586.99,1315.42l-36.705,-9.835" style="fill:none;stroke:#3dfaff;stroke-width:1px;"/><path d="M1576.91,1347.38l-35.708,-12.997" style="fill:none;stroke:#3dfaff;stroke-width:1px;"/><path d="M1564.09,1378.34l-34.439,-16.06" style="fill:none;stroke:#3dfaff;stroke-width:1px;"/><path d="M1548.62,1408.06l-32.909,-19" style="fill:none;stroke:#3dfaff;stroke-width:1px;"/><path d="M1530.61,1436.33l-31.128,-21.796" style="fill:none;stroke:#3dfaff;stroke-width:1px;"/><path d="M1510.24,1462.83l-29.11,-24.425" style="fill:none;stroke:#3dfaff;stroke-width:1px;"/><path d="M1487.6,1487.54l-26.87,-26.87" style="fill:none;stroke:#3dfaff;stroke-width:1px;"/><path d="M1462.9,1510.18l-24.426,-29.11" style="fill:none;stroke:#3dfaff;stroke-width:1px;"/><path d="M1436.31,1530.58l-21.795,-31.128" style="fill:none;stroke:#3dfaff;stroke-width:1px;"/><path d="M1408.05,1548.58l-19,-32.909" style="fill:none;stroke:#3dfaff;stroke-width:1px;"/><path d="M1378.32,1564.06l-16.059,-34.439" style="fill:none;stroke:#3dfaff;stroke-width:1px;"/><path d="M1347.36,1576.88l-12.997,-35.708" style="fill:none;stroke:#3dfaff;stroke-width:1px;"/><path d="M1315.4,1586.96l-9.835,-36.706" style="fill:none;stroke:#3dfaff;stroke-width:1px;"/><path d="M1282.7,1594.19l-6.598,-37.422" style="fill:none;stroke:#3dfaff;stroke-width:1px;"/><path d="M1249.48,1598.57l-3.312,-37.855" style="fill:none;stroke:#3dfaff;stroke-width:1px;"/><path d="M1216,1600.03l0,-38" style="fill:none;stroke:#3dfaff;stroke-width:1px;"/></g></g><g id="Layer4"><path d="M645.71,1267.73l570.29,-51.601l-327.829,464.104m660.63,-1l-332.801,-463.104l570.197,51.71m-330.721,-569.435l-239.476,517.725l-239.399,-519.223" style="fill:none;stroke:#199cc8;stroke-width:2px;"/></g><g id="Level-8" serif:id="Level 8"><path d="M2274.51,1501.77c-32.517,119.715 -85.662,234.976 -159.432,340.133l-4.591,6.543l-62.627,-43.851l4.599,-6.555c68.619,-97.813 118.052,-205.026 148.298,-316.381l2.1,-7.73l73.747,20.13l-2.094,7.711Zm-7.72,-2.097l-58.313,-15.917c-30.485,112.234 -80.308,220.293 -149.469,318.878l49.52,34.675c73.23,-104.385 125.983,-218.8 158.262,-337.636Zm-1975.36,141.159c49.018,106.243 117.285,205.761 204.798,293.274c152.121,152.121 340.517,246.085 537.452,281.888l7.88,1.433l-13.757,75.191l-7.862,-1.429c-211.707,-38.489 -414.236,-139.497 -577.767,-303.028c-94.077,-94.077 -167.461,-201.061 -220.154,-315.273l-3.35,-7.261l69.407,-32.063l3.353,7.268Zm-7.264,3.351l-54.882,25.354c52.308,113.377 125.157,219.578 218.546,312.967c162.336,162.335 363.383,262.606 573.542,300.814l10.877,-59.453c-198.483,-36.085 -388.361,-130.785 -541.678,-284.102c-88.201,-88.201 -157.002,-188.502 -206.405,-295.58Zm-146.257,-621.304c37.53,-214.215 138.95,-419.382 304.265,-584.696c165.314,-165.315 370.482,-266.735 584.697,-304.265l7.871,-1.379l13.273,75.277l-7.888,1.382c-199.268,34.912 -390.119,129.259 -543.899,283.039c-153.78,153.78 -248.127,344.63 -283.039,543.898l-1.382,7.889l-75.277,-13.274l1.379,-7.871Zm7.88,1.38l59.521,10.496c35.185,-200.835 130.273,-393.186 285.261,-548.175c154.989,-154.989 347.341,-250.076 548.175,-285.262l-10.495,-59.52c-212.648,37.255 -416.315,137.936 -580.421,302.041c-164.105,164.106 -264.786,367.772 -302.041,580.42Zm1956.73,-317.1c-43.98,-76.909 -98.787,-149.291 -164.418,-214.922c-63.794,-63.794 -133.967,-117.362 -208.475,-160.7l-6.914,-4.021l38.422,-66.101l6.918,4.024c80.093,46.587 155.527,104.167 224.104,172.744c70.55,70.55 129.463,148.361 176.74,231.034l3.973,6.946l-66.38,37.939l-3.97,-6.943Zm6.945,-3.972l52.488,-29.999c-46.933,-82.07 -105.417,-159.312 -175.453,-229.349c-68.077,-68.076 -142.961,-125.238 -222.47,-171.485l-30.381,52.268c75.092,43.678 145.816,97.664 210.11,161.958c66.146,66.146 121.381,139.096 165.706,216.607Z" style="fill:#199cc8;fill-opacity:0.47;"/><path d="M1121.69,121.281c197.326,-17.447 389.076,19.291 559.038,98.855l7.238,3.388l-32.333,69.265l-7.253,-3.396c-158.099,-74.011 -336.463,-108.186 -520.016,-91.956l-7.976,0.705l-6.659,-76.157l7.961,-0.704Zm1099.45,1268.93c35.729,-203.937 9.212,-416.689 -79.558,-607.54l-3.373,-7.25l69.309,-32.277l3.375,7.257c95.423,205.153 123.934,433.847 85.527,653.066l-1.382,7.889l-75.277,-13.274l1.379,-7.871Zm-2034.84,195.522c-54.206,-150.472 -74.467,-310.468 -60.78,-468.06l0.692,-7.976l76.144,6.663l-0.692,7.964c-12.733,146.609 6.113,295.455 56.542,435.439l2.708,7.519l-71.899,25.985l-2.715,-7.534Zm942.019,642.945c289.748,25.165 588.237,-73.023 809.783,-294.569c20.872,-20.872 40.649,-42.426 59.332,-64.592l5.15,-6.111l58.502,49.211l-5.16,6.123c-20.08,23.824 -41.336,46.991 -63.769,69.424c-238.155,238.154 -559.02,343.71 -870.49,316.659l-7.975,-0.693l6.662,-76.143l7.965,0.691Z" style="fill:#3dfaff;"/></g></g></svg>